<?xml version="1.0" encoding="UTF-8" standalone="no"?> <svg width="512" height="512" viewBox="0 0 512 512" fill="none" xmlns="http://www.w3.org/2000/svg">
<path d="M376 272C393.944 272 408 261.458 408 248C408 234.542 393.944 224 376 224C358.056 224 344 234.542 344 248C344 261.458 358.056 272 376 272ZM376 240C385.767 240 392 244.738 392 248C392 251.262 385.767 256 376 256C366.233 256 360 251.262 360 248C360 244.738 366.233 240 376 240Z" fill="black"/>
<path d="M296 272C313.944 272 328 261.458 328 248C328 234.542 313.944 224 296 224C278.056 224 264 234.542 264 248C264 261.458 278.056 272 296 272ZM296 240C305.767 240 312 244.738 312 248C312 251.262 305.767 256 296 256C286.233 256 280 251.262 280 248C280 244.738 286.233 240 296 240Z" fill="black"/>
<path d="M376 336C393.944 336 408 325.458 408 312C408 298.542 393.944 288 376 288C358.056 288 344 298.542 344 312C344 325.458 358.056 336 376 336ZM376 304C385.767 304 392 308.738 392 312C392 315.262 385.767 320 376 320C366.233 320 360 315.262 360 312C360 308.738 366.233 304 376 304Z" fill="black"/>
<path d="M296 336C313.944 336 328 325.458 328 312C328 298.542 313.944 288 296 288C278.056 288 264 298.542 264 312C264 325.458 278.056 336 296 336ZM296 304C305.767 304 312 308.738 312 312C312 315.262 305.767 320 296 320C286.233 320 280 315.262 280 312C280 308.738 286.233 304 296 304Z" fill="black"/>
<path d="M376 400C393.944 400 408 389.458 408 376C408 362.542 393.944 352 376 352C358.056 352 344 362.542 344 376C344 389.458 358.056 400 376 400ZM376 368C385.767 368 392 372.738 392 376C392 379.262 385.767 384 376 384C366.233 384 360 379.262 360 376C360 372.738 366.233 368 376 368Z" fill="black"/>
<path d="M296 400C313.944 400 328 389.458 328 376C328 362.542 313.944 352 296 352C278.056 352 264 362.542 264 376C264 389.458 278.056 400 296 400ZM296 368C305.767 368 312 372.738 312 376C312 379.262 305.767 384 296 384C286.233 384 280 379.262 280 376C280 372.738 286.233 368 296 368Z" fill="black"/>
<path d="M376 464C393.944 464 408 453.458 408 440C408 426.542 393.944 416 376 416C358.056 416 344 426.542 344 440C344 453.458 358.056 464 376 464ZM376 432C385.767 432 392 436.738 392 440C392 443.262 385.767 448 376 448C366.233 448 360 443.262 360 440C360 436.738 366.233 432 376 432Z" fill="black"/>
<path d="M296 464C313.944 464 328 453.458 328 440C328 426.542 313.944 416 296 416C278.056 416 264 426.542 264 440C264 453.458 278.056 464 296 464ZM296 432C305.767 432 312 436.738 312 440C312 443.262 305.767 448 296 448C286.233 448 280 443.262 280 440C280 436.738 286.233 432 296 432Z" fill="black"/>
<path d="M95.2172 127.447C88.224 130.914 82.342 136.271 78.2384 142.911C74.1348 149.551 71.9738 157.208 72.0002 165.013V416C72.0098 424.484 75.3843 432.618 81.3834 438.617C87.3825 444.616 95.5162 447.99 104 448H232V474C232.007 479.833 234.327 485.425 238.451 489.549C242.576 493.673 248.168 495.993 254 496H418C423.833 495.993 429.425 493.673 433.549 489.549C437.674 485.425 439.994 479.833 440 474V214C439.994 208.167 437.674 202.575 433.549 198.451C429.425 194.327 423.833 192.007 418 192H312V165.013C312.027 157.208 309.866 149.551 305.762 142.911C301.658 136.271 295.777 130.914 288.783 127.447L280 123.056V112H296C298.122 112 300.157 111.157 301.657 109.657C303.157 108.157 304 106.122 304 104V72C304 69.8783 303.157 67.8434 301.657 66.3431C300.157 64.8429 298.122 64 296 64V38C295.994 32.1673 293.674 26.5753 289.549 22.451C285.425 18.3266 279.833 16.0066 274 16H110C104.168 16.0066 98.5756 18.3266 94.4512 22.451C90.3268 26.5753 88.0069 32.1673 88.0002 38V64C85.8785 64 83.8437 64.8429 82.3434 66.3431C80.8431 67.8434 80.0002 69.8783 80.0002 72V104C80.0002 106.122 80.8431 108.157 82.3434 109.657C83.8437 111.157 85.8785 112 88.0002 112H104V123.056L95.2172 127.447ZM232 432H104C99.7583 431.995 95.6916 430.308 92.6921 427.308C89.6926 424.309 88.0053 420.242 88.0002 416V392H232V432ZM232 266.538C231.494 267.173 230.944 267.771 230.353 268.327H195.7C194.65 268.327 193.609 268.534 192.639 268.936C191.668 269.338 190.786 269.927 190.043 270.67L179.7 281.014L161.358 262.67C160.462 261.774 159.365 261.103 158.159 260.714C156.953 260.324 155.671 260.227 154.42 260.43C153.169 260.633 151.984 261.131 150.963 261.882C149.941 262.632 149.113 263.615 148.546 264.749L142.757 276.327H133.957L125.418 268.397C122.454 265.663 120.565 261.96 120.094 257.955C119.622 253.95 120.599 249.909 122.847 246.562C124.853 243.554 127.54 241.061 130.69 239.287C133.84 237.512 137.364 236.505 140.976 236.349C144.588 236.192 148.186 236.89 151.478 238.385C154.77 239.88 157.663 242.131 159.921 244.954L171.602 259.554C172.352 260.491 173.302 261.247 174.384 261.767C175.465 262.287 176.649 262.556 177.849 262.556C179.049 262.556 180.233 262.287 181.315 261.767C182.396 261.247 183.347 260.491 184.096 259.554L195.776 244.954C197.958 242.228 200.731 240.034 203.887 238.54C207.043 237.045 210.497 236.289 213.989 236.329C217.48 236.37 220.916 237.205 224.037 238.771C227.157 240.337 229.88 242.594 231.998 245.37L232 266.538ZM213.127 284.327L177.851 317.083L150.59 291.77C152.443 291.057 153.964 289.679 154.856 287.905L157.893 281.832L174.044 297.984C174.787 298.727 175.669 299.316 176.64 299.718C177.61 300.12 178.651 300.327 179.701 300.327C180.752 300.327 181.792 300.12 182.763 299.718C183.733 299.316 184.615 298.727 185.358 297.984L199.015 284.327H213.127ZM418 208C419.591 208.002 421.116 208.634 422.241 209.759C423.366 210.884 423.999 212.409 424 214V474C423.999 475.591 423.366 477.116 422.241 478.241C421.116 479.366 419.591 479.998 418 480H254C252.409 479.998 250.884 479.366 249.759 478.241C248.634 477.116 248.002 475.591 248 474V214C248.002 212.409 248.634 210.884 249.759 209.759C250.884 208.634 252.409 208.002 254 208H418ZM296 192H254C248.168 192.007 242.576 194.327 238.451 198.451C234.327 202.575 232.007 208.167 232 214V224.867C223.975 220.614 214.718 219.296 205.825 221.138C196.931 222.98 188.96 227.868 183.284 234.958L177.851 241.751L172.417 234.959C168.587 230.17 163.68 226.353 158.097 223.817C152.514 221.281 146.411 220.098 140.284 220.364C134.158 220.629 128.18 222.337 122.837 225.347C117.495 228.357 112.938 232.585 109.536 237.688C105.168 244.194 103.27 252.047 104.187 259.83C105.104 267.612 108.775 274.81 114.536 280.122L172.41 333.862C173.89 335.236 175.835 336 177.854 336C179.873 336 181.818 335.236 183.297 333.862L232 288.636V376H88.0002V360H120V344H88.0002V328H120V312H88.0002V176H296V192ZM104 38C104.002 36.4092 104.634 34.884 105.759 33.7591C106.884 32.6342 108.409 32.0016 110 32H274C275.591 32.0016 277.116 32.6342 278.241 33.7591C279.366 34.884 279.999 36.4092 280 38V64H264V48H248V64H232V48H216V64H200V48H184V64H168V48H152V64H136V48H120V64H104V38ZM96.0002 96V80H288V96H96.0002ZM115.578 135.155C116.907 134.491 118.024 133.469 118.805 132.206C119.586 130.942 120 129.486 120 128V112H264V128C264 129.486 264.414 130.942 265.195 132.206C265.976 133.469 267.094 134.491 268.422 135.155L281.622 141.755C285.186 143.522 288.293 146.087 290.701 149.252C293.11 152.417 294.756 156.095 295.509 160H88.4912C89.2448 156.096 90.8896 152.419 93.2975 149.254C95.7054 146.09 98.8113 143.525 102.373 141.758L115.578 135.155Z" fill="black"/>
<path d="M152 344H136V360H152V344Z" fill="black"/>
</svg>
