<?xml version="1.0" encoding="utf-8"?>
<!-- Generator: Adobe Illustrator 16.0.0, SVG Export Plug-In . SVG Version: 6.00 Build 0)  -->
<!DOCTYPE svg PUBLIC "-//W3C//DTD SVG 1.1//EN" "http://www.w3.org/Graphics/SVG/1.1/DTD/svg11.dtd">
<svg version="1.1" id="Layer_1" xmlns="http://www.w3.org/2000/svg" xmlns:xlink="http://www.w3.org/1999/xlink" x="0px" y="0px"
	 width="110px" height="110px" viewBox="0 0 110 110" enable-background="new 0 0 110 110" xml:space="preserve">
<g>
	<path d="M55.004,0C24.678,0,0,24.678,0,55.004C0,85.331,24.678,110,55.004,110S110,85.331,110,55.004C110,24.678,85.33,0,55.004,0z
		 M71.179,73.676c-1.531,2.129-3.703,3.811-6.458,4.997c-1.865,0.804-3.941,1.337-6.181,1.586v6.565c0,2.1-1.708,3.808-3.808,3.808
		c-2.1,0-3.809-1.708-3.809-3.808v-6.609c-4.18-0.423-8.197-1.459-11.954-3.084c-0.701-0.291-1.3-0.782-1.769-1.454
		c-0.476-0.681-0.717-1.427-0.717-2.216c0-1.015,0.35-1.908,1.039-2.656c0.69-0.759,1.63-1.162,2.713-1.162
		c0.584,0,1.15,0.119,1.681,0.353c2.843,1.267,5.867,2.09,9.007,2.452V58.565c-1.984-0.583-3.712-1.161-5.145-1.721
		c-2.372-0.926-4.439-2.332-6.143-4.178c-1.779-1.926-2.681-4.503-2.681-7.658c0-2.733,0.731-5.252,2.172-7.487
		c1.44-2.231,3.578-4.023,6.353-5.327c1.623-0.763,3.45-1.306,5.443-1.617v-7.403c0-2.1,1.708-3.808,3.809-3.808
		c2.1,0,3.808,1.708,3.808,3.808v7.187c3.767,0.255,7.293,0.984,10.495,2.168c1.652,0.594,2.531,1.847,2.531,3.621
		c0,0.955-0.327,1.826-0.972,2.592c-0.678,0.804-1.616,1.229-2.71,1.229c-0.397,0-0.87-0.111-1.444-0.339
		c-2.542-0.877-5.205-1.433-7.899-1.644V52.18c2.554,0.674,4.722,1.356,6.452,2.032c2.312,0.905,4.318,2.331,5.963,4.238
		c1.697,1.97,2.558,4.627,2.558,7.898C73.514,69.053,72.728,71.518,71.179,73.676z"/>
	<path d="M60.912,61.423c-0.645-0.226-1.427-0.475-2.371-0.754v11.738c4.662-0.696,6.933-2.817,6.933-6.462
		c0-1.052-0.384-1.904-1.175-2.607C63.399,62.537,62.26,61.893,60.912,61.423z"/>
	<path d="M45.063,44.542c0,1.338,0.415,2.386,1.267,3.203c0.944,0.901,2.156,1.618,3.601,2.128c0.319,0.111,0.651,0.221,0.994,0.33
		V38.496c-1.125,0.305-2.137,0.728-3.021,1.263C45.992,40.917,45.063,42.481,45.063,44.542z"/>
	<path fill="#FFFFFF" d="M64.993,54.211c-1.73-0.675-3.898-1.358-6.452-2.032V37.989c2.695,0.211,5.357,0.767,7.899,1.644
		c0.574,0.229,1.046,0.339,1.444,0.339c1.095,0,2.032-0.425,2.71-1.229c0.645-0.766,0.972-1.637,0.972-2.592
		c0-1.774-0.878-3.027-2.531-3.621c-3.202-1.185-6.729-1.913-10.495-2.168v-7.187c0-2.1-1.708-3.808-3.808-3.808
		c-2.1,0-3.809,1.708-3.809,3.808v7.403c-1.993,0.311-3.82,0.854-5.443,1.617c-2.775,1.304-4.913,3.096-6.353,5.327
		c-1.441,2.235-2.172,4.754-2.172,7.487c0,3.155,0.902,5.731,2.681,7.658c1.704,1.846,3.771,3.251,6.143,4.178
		c1.433,0.56,3.161,1.138,5.145,1.721v13.883c-3.14-0.362-6.164-1.185-9.007-2.452c-0.531-0.234-1.097-0.353-1.681-0.353
		c-1.083,0-2.023,0.403-2.713,1.162c-0.689,0.748-1.039,1.641-1.039,2.656c0,0.789,0.242,1.535,0.717,2.216
		c0.468,0.672,1.068,1.163,1.769,1.454c3.757,1.625,7.774,2.662,11.954,3.084v6.609c0,2.1,1.708,3.808,3.809,3.808
		c2.1,0,3.808-1.708,3.808-3.808v-6.565c2.24-0.25,4.316-0.782,6.181-1.586c2.754-1.186,4.927-2.867,6.458-4.997
		c1.549-2.158,2.334-4.623,2.334-7.328c0-3.271-0.86-5.929-2.558-7.898C69.311,56.542,67.304,55.117,64.993,54.211z M50.924,50.202
		c-0.343-0.108-0.675-0.218-0.994-0.33c-1.444-0.511-2.656-1.227-3.601-2.128c-0.853-0.817-1.267-1.864-1.267-3.203
		c0-2.06,0.929-3.625,2.841-4.783c0.884-0.535,1.896-0.958,3.021-1.263V50.202z M58.541,72.407V60.669
		c0.944,0.279,1.727,0.528,2.371,0.754c1.349,0.47,2.488,1.114,3.387,1.915c0.791,0.703,1.175,1.555,1.175,2.607
		C65.473,69.59,63.203,71.711,58.541,72.407z"/>
</g>
</svg>
