<?xml version="1.0" encoding="iso-8859-1"?>
<!-- Generator: Adobe Illustrator 24.3.0, SVG Export Plug-In . SVG Version: 6.00 Build 0)  -->
<svg version="1.1" xmlns="http://www.w3.org/2000/svg" xmlns:xlink="http://www.w3.org/1999/xlink" x="0px" y="0px"
	 viewBox="0 0 512 512" style="enable-background:new 0 0 512 512;" xml:space="preserve">
<g id="_x32_5_x2C__Pharmacy_x2C__prescription_x2C__rx">
	<g>
		<path id="XMLID_5333_" style="fill:#FFFFFF;" d="M411,421c0,9.67-3.92,18.41-10.25,24.75C394.42,452.08,385.66,456,376,456
			c-19.33,0-35-15.67-35-35v-35H91V6h320C411,24.199,411,399.988,411,421z"/>
		<path id="XMLID_5330_" style="fill:#A4C2F7;" d="M376,456c9.66,0,18.42-3.92,24.75-10.25C407.08,439.41,411,430.67,411,421V46h50
			v460H121v-50H376z"/>
		<path id="XMLID_5306_" style="fill:#A4C2F7;" d="M341,421c0,19.33,15.67,35,35,35H121c-38.66,0-70-31.34-70-70
			c11.801,0,270.272,0,290,0V421z"/>
		<path id="XMLID_5305_" style="fill:#418CFE;" d="M91,391c-2.761,0-5-2.238-5-5V6c0-2.762,2.239-5,5-5h320c2.761,0,5,2.238,5,5v40
			c0,2.762-2.239,5-5,5s-5-2.238-5-5V11H96v375C96,388.762,93.761,391,91,391z"/>
		<path id="XMLID_5304_" style="fill:#418CFE;" d="M461,511H121c-2.761,0-5-2.238-5-5v-50c0-2.762,2.239-5,5-5s5,2.238,5,5v45h330
			V51h-40v370c0,10.675-4.159,20.719-11.712,28.283C396.731,456.84,386.686,461,376,461c-22.056,0-40-17.944-40-40
			c0-2.762,2.239-5,5-5s5,2.238,5,5c0,16.542,13.458,30,30,30c8.015,0,15.549-3.12,21.214-8.785
			C402.879,436.541,406,429.006,406,421V46c0-2.762,2.239-5,5-5h50c2.761,0,5,2.238,5,5v460C466,508.762,463.761,511,461,511z"/>
		<path id="XMLID_5303_" style="fill:#418CFE;" d="M341,431c-2.761,0-5-2.238-5-5v-40c0-2.762,2.239-5,5-5s5,2.238,5,5v40
			C346,428.762,343.761,431,341,431z"/>
		<path id="XMLID_5302_" style="fill:#418CFE;" d="M381,461H121c-41.355,0-75-33.645-75-75c0-2.762,2.239-5,5-5h290
			c2.761,0,5,2.238,5,5s-2.239,5-5,5H56.19c2.562,33.514,30.651,60,64.81,60h260c2.761,0,5,2.238,5,5S383.761,461,381,461z"/>
		<path id="XMLID_5299_" style="fill:#418CFE;" d="M176,101h-45c-2.761,0-5-2.238-5-5V46c0-2.762,2.239-5,5-5h45
			c16.542,0,30,13.458,30,30c0,8.003-3.118,15.536-8.78,21.211C191.551,97.88,184.017,101,176,101z M136,91h40
			c11.096,0,20-8.983,20-20c0-11.028-8.972-20-20-20h-40V91z"/>
		<path id="XMLID_5298_" style="fill:#418CFE;" d="M131,151c-2.761,0-5-2.238-5-5V96c0-2.762,2.239-5,5-5s5,2.238,5,5v50
			C136,148.762,133.761,151,131,151z"/>
		<path id="XMLID_5297_" style="fill:#418CFE;" d="M206.84,188.773l-60-90c-1.532-2.298-0.911-5.402,1.387-6.934
			s5.402-0.911,6.934,1.387l60,90c1.532,2.298,0.911,5.402-1.387,6.934C211.479,191.689,208.375,191.076,206.84,188.773z"/>
		<path id="XMLID_5296_" style="fill:#418CFE;" d="M167.876,189.904c-2.156-1.726-2.505-4.872-0.78-7.028l40-49.999
			c1.724-2.156,4.87-2.507,7.028-0.781c2.157,1.725,2.506,4.871,0.782,7.027l-40,50.001
			C173.174,191.286,170.027,191.624,167.876,189.904z"/>
		<path id="XMLID_5295_" style="fill:#418CFE;" d="M361,251H141c-2.761,0-5-2.238-5-5s2.239-5,5-5h220c2.761,0,5,2.238,5,5
			S363.761,251,361,251z"/>
		<path id="XMLID_5294_" style="fill:#418CFE;" d="M361,211H261c-2.761,0-5-2.238-5-5s2.239-5,5-5h100c2.761,0,5,2.238,5,5
			S363.761,211,361,211z"/>
		<path id="XMLID_5293_" style="fill:#418CFE;" d="M361,171H261c-2.761,0-5-2.238-5-5s2.239-5,5-5h100c2.761,0,5,2.238,5,5
			S363.761,171,361,171z"/>
		<path id="XMLID_5292_" style="fill:#418CFE;" d="M361,131H261c-2.761,0-5-2.238-5-5s2.239-5,5-5h100c2.761,0,5,2.238,5,5
			S363.761,131,361,131z"/>
		<path id="XMLID_5291_" style="fill:#418CFE;" d="M361,291H141c-2.761,0-5-2.238-5-5s2.239-5,5-5h220c2.761,0,5,2.238,5,5
			S363.761,291,361,291z"/>
		<path id="XMLID_5290_" style="fill:#418CFE;" d="M361,331H141c-2.761,0-5-2.238-5-5s2.239-5,5-5h220c2.761,0,5,2.238,5,5
			S363.761,331,361,331z"/>
	</g>
</g>
<g id="Layer_1">
</g>
</svg>
