<?xml version="1.0" encoding="iso-8859-1"?>
<!-- Generator: Adobe Illustrator 19.0.0, SVG Export Plug-In . SVG Version: 6.00 Build 0)  -->
<svg version="1.1" xmlns="http://www.w3.org/2000/svg" xmlns:xlink="http://www.w3.org/1999/xlink" x="0px" y="0px"
	 viewBox="0 0 512 512" style="enable-background:new 0 0 512 512;" xml:space="preserve">
<g id="_x38_40_x2C__Instruments_x2C__surgery_x2C__tools__x2C__medical">
	<g id="XMLID_13111_">
		<g id="XMLID_13112_">
			<circle id="XMLID_13115_" style="fill:#FFFFFF;" cx="316" cy="396" r="40"/>
			<path id="XMLID_13118_" style="fill:#FFFFFF;" d="M282,407.5c0-22.09,17.91-40,40-40c13.082,0,24.696,6.282,31.994,15.993
				C348.741,367.53,333.721,356,316,356c-22.09,0-40,17.91-40,40c0,9.008,2.98,17.319,8.006,24.007
				C282.711,416.07,282,411.869,282,407.5z"/>
			<circle id="XMLID_13121_" style="fill:#FFFFFF;" cx="176" cy="396" r="40"/>
			<path id="XMLID_13124_" style="fill:#FFFFFF;" d="M142.25,406.75c0-22.09,17.91-40,40-40c12.526,0,23.704,5.763,31.039,14.777
				C207.487,366.593,192.984,356,176,356c-22.09,0-40,17.91-40,40c0,9.564,3.361,18.34,8.961,25.223
				C143.217,416.732,142.25,411.855,142.25,406.75z"/>
			<polygon id="XMLID_13125_" style="fill:#9BC9FF;" points="106,236 106,426 56,426 56,236 86,236 			"/>
			<polygon id="XMLID_13126_" style="fill:#9BC9FF;" points="65.25,246.25 95.25,246.25 106,246.25 106,236 86,236 56,236 56,426 
				65.25,426 			"/>
			<path id="XMLID_13127_" style="fill:#9BC9FF;" d="M106,126v70H86H56V76C83.61,76,106,98.38,106,126z"/>
			<path id="XMLID_13128_" style="fill:#9BC9FF;" d="M65,88.5c13.931,0,26.527,5.702,35.595,14.896C92.34,87.142,75.475,76,56,76
				v120h9V88.5z"/>
			<path id="XMLID_13129_" style="fill:#1E81CE;" d="M176,441c-24.813,0-45-20.186-45-45s20.187-45,45-45s45,20.186,45,45
				S200.813,441,176,441z M176,361c-19.299,0-35,15.701-35,35s15.701,35,35,35s35-15.701,35-35S195.299,361,176,361z"/>
			<path id="XMLID_13132_" style="fill:#1E81CE;" d="M216.006,401.001c-0.289,0-0.581-0.025-0.875-0.077
				c-2.719-0.479-4.535-3.073-4.055-5.793l30-170c0.275-1.559,1.272-2.895,2.688-3.603l18.086-9.043l39.37-127.955
				c0.813-2.641,3.61-4.122,6.25-3.309c2.639,0.812,4.12,3.609,3.309,6.249l-40,130c-0.402,1.306-1.321,2.391-2.543,3.002
				l-17.749,8.874l-29.563,167.522C220.496,399.294,218.386,401.001,216.006,401.001z"/>
			<path id="XMLID_13133_" style="fill:#1E81CE;" d="M316,441c-24.814,0-45-20.186-45-45s20.186-45,45-45c24.813,0,45,20.186,45,45
				S340.813,441,316,441z M316,361c-19.299,0-35,15.701-35,35s15.701,35,35,35s35-15.701,35-35S335.299,361,316,361z"/>
			<path id="XMLID_13136_" style="fill:#1E81CE;" d="M275.994,401.001c-2.381,0-4.49-1.706-4.918-4.132l-29.563-167.522
				l-17.749-8.874c-1.222-0.611-2.141-1.696-2.543-3.002l-40-130c-0.812-2.64,0.669-5.438,3.309-6.249
				c2.636-0.814,5.436,0.669,6.249,3.309l39.371,127.955l18.086,9.043c1.416,0.708,2.413,2.044,2.688,3.603l30,170
				c0.479,2.72-1.336,5.313-4.055,5.793C276.575,400.976,276.282,401.001,275.994,401.001z"/>
			<path id="XMLID_13137_" style="fill:#1E81CE;" d="M106,431H56c-2.761,0-5-2.238-5-5V236c0-2.761,2.239-5,5-5s5,2.239,5,5v185h40
				V241H86c-2.761,0-5-2.238-5-5c0-2.761,2.239-5,5-5h20c2.761,0,5,2.239,5,5v190C111,428.762,108.761,431,106,431z"/>
			<path id="XMLID_13138_" style="fill:#1E81CE;" d="M86,241H56c-2.761,0-5-2.238-5-5v-40c0-2.761,2.239-5,5-5s5,2.239,5,5v35h20
				v-35c0-2.761,2.239-5,5-5s5,2.239,5,5v40C91,238.762,88.761,241,86,241z"/>
			<path id="XMLID_13139_" style="fill:#1E81CE;" d="M106,201H56c-2.761,0-5-2.238-5-5V76c0-2.761,2.239-5,5-5
				c30.327,0,55,24.673,55,55v70C111,198.762,108.761,201,106,201z M61,191h40v-65c0-23.123-17.532-42.229-40-44.724V191z"/>
			<path id="XMLID_13142_" style="fill:#1E81CE;" d="M386,431c-2.762,0-5-2.238-5-5v-25c0-16.542,13.458-30,30-30h20
				c5.346,0,10.368-2.079,14.145-5.854c3.775-3.776,5.855-8.8,5.855-14.146c0-11.028-8.972-20-20-20h-60
				c-8.017,0-15.551-3.119-21.215-8.784C344.12,316.551,341,309.017,341,301c0-16.542,13.458-30,30-30h60
				c5.346,0,10.368-2.079,14.145-5.854c3.775-3.776,5.855-8.8,5.855-14.146c0-11.027-8.972-20-20-20h-60
				c-8.017,0-15.551-3.12-21.216-8.785C344.12,216.551,341,209.017,341,201c0-16.542,13.458-30,30-30h20c11.028,0,20-8.972,20-20V96
				c0-2.761,2.238-5,5-5c2.762,0,5,2.239,5,5v55c0,16.542-13.458,30-30,30h-20c-11.028,0-20,8.973-20,20
				c0,5.346,2.079,10.368,5.855,14.145c3.776,3.776,8.8,5.855,14.145,5.855h60c16.542,0,30,13.458,30,30
				c0,8.017-3.12,15.551-8.785,21.216C446.551,277.881,439.017,281,431,281h-60c-11.028,0-20,8.972-20,20
				c0,5.346,2.08,10.369,5.855,14.146C360.632,318.921,365.654,321,371,321h60c16.542,0,30,13.458,30,30
				c0,8.017-3.12,15.551-8.785,21.216C446.551,377.881,439.017,381,431,381h-20c-11.028,0-20,8.972-20,20v25
				C391,428.762,388.762,431,386,431z"/>
		</g>
	</g>
</g>
<g id="Layer_1">
</g>
</svg>
